<svg width="1000" height="1000" viewBox="0 0 1000 1000" fill="none" xmlns="http://www.w3.org/2000/svg">
<path d="M643.257 709.075C637.519 709.075 632.633 708.192 628.598 706.427C624.626 704.662 621.316 702.329 618.668 699.429V706.805H596.916V580.267L618.668 570.242V617.718C621.316 614.754 624.941 612.39 629.544 610.625C634.209 608.796 638.906 607.882 643.635 607.882C651.579 607.882 658.609 609.931 664.725 614.029C670.903 618.065 675.727 623.865 679.194 631.431C682.725 638.934 684.49 647.918 684.49 658.384C684.49 674.714 680.771 687.26 673.331 696.024C665.954 704.725 655.929 709.075 643.257 709.075ZM639.852 688.269C647.544 688.269 653.25 685.589 656.97 680.23C660.69 674.808 662.55 667.526 662.55 658.384C662.55 648.738 660.627 641.361 656.781 636.254C652.998 631.084 647.355 628.499 639.852 628.499C636.384 628.499 633.232 629.003 630.395 630.012C627.621 631.021 625.225 632.282 623.207 633.795C621.253 635.245 619.74 636.695 618.668 638.145V678.812C620.938 681.838 623.838 684.171 627.368 685.81C630.962 687.449 635.123 688.269 639.852 688.269Z" fill="#1395F2"/>
<path d="M480.362 744.824V610.152H502.114V617.529C504.699 614.755 507.851 612.453 511.571 610.625C515.354 608.797 520.083 607.882 525.757 607.882C534.332 607.882 541.772 609.868 548.076 613.84C554.444 617.812 559.362 623.581 562.83 631.147C566.36 638.713 568.126 647.855 568.126 658.573C568.126 669.165 566.297 678.244 562.641 685.81C558.984 693.313 553.971 699.082 547.604 703.117C541.236 707.089 534.017 709.075 525.946 709.075C520.083 709.075 515.26 708.129 511.477 706.238C507.694 704.284 504.573 701.888 502.114 699.05V734.799L480.362 744.824ZM522.731 688.269C530.234 688.269 536.003 685.716 540.038 680.609C544.136 675.439 546.185 668.094 546.185 658.573C546.185 649.494 544.167 642.212 540.132 636.727C536.097 631.242 530.234 628.499 522.542 628.499C517.75 628.499 513.652 629.382 510.247 631.147C506.906 632.85 504.195 635.182 502.114 638.146V678.623C503.942 681.145 506.59 683.383 510.058 685.337C513.526 687.292 517.75 688.269 522.731 688.269Z" fill="#1395F2"/>
<path d="M405.989 709.075C397.603 709.075 389.974 707.499 383.102 704.347C376.23 701.131 370.744 696.97 366.646 691.863L381.021 678.812C383.669 681.46 387.169 684.013 391.519 686.472C395.869 688.931 401.071 690.161 407.123 690.161C411.474 690.161 415.068 689.436 417.905 687.985C420.805 686.535 422.255 684.108 422.255 680.703C422.255 678.56 421.372 676.731 419.607 675.218C417.842 673.642 415.257 672.129 411.852 670.679C408.447 669.229 404.286 667.589 399.368 665.761C393.253 663.491 387.862 661.032 383.196 658.384C378.594 655.736 375 652.521 372.415 648.738C369.83 644.892 368.538 640.1 368.538 634.363C368.538 628.751 370.177 623.991 373.455 620.082C376.797 616.11 381.273 613.084 386.885 611.003C392.559 608.923 398.864 607.882 405.799 607.882C414.122 607.882 421.278 609.364 427.267 612.327C433.257 615.291 438.143 618.916 441.926 623.203L427.173 635.308C424.714 633.102 421.625 631.147 417.905 629.445C414.185 627.68 409.582 626.797 404.097 626.797C399.936 626.797 396.5 627.427 393.789 628.688C391.078 629.949 389.722 631.967 389.722 634.741C389.722 636.695 390.636 638.429 392.465 639.942C394.356 641.393 396.878 642.78 400.03 644.104C403.183 645.428 406.682 646.783 410.528 648.17C416.076 650.188 421.341 652.458 426.322 654.98C431.366 657.501 435.464 660.78 438.616 664.815C441.832 668.787 443.439 674.02 443.439 680.514C443.439 689.593 440.003 696.623 433.131 701.604C426.322 706.585 417.274 709.075 405.989 709.075Z" fill="#1395F2"/>
<path d="M759.81 551.454C754.073 551.454 749.186 550.571 745.151 548.806C741.179 547.041 737.869 544.708 735.221 541.808V549.184H713.469V422.646L735.221 412.621V460.097C737.869 457.133 741.495 454.769 746.097 453.004C750.763 451.175 755.46 450.261 760.188 450.261C768.133 450.261 775.162 452.31 781.278 456.408C787.457 460.443 792.28 466.244 795.748 473.81C799.279 481.312 801.044 490.297 801.044 500.763C801.044 517.093 797.324 529.639 789.884 538.403C782.508 547.104 772.483 551.454 759.81 551.454ZM756.406 530.648C764.097 530.648 769.803 527.968 773.523 522.609C777.243 517.187 779.103 509.905 779.103 500.763C779.103 491.117 777.18 483.74 773.334 478.633C769.551 473.463 763.908 470.878 756.406 470.878C752.938 470.878 749.785 471.382 746.948 472.391C744.174 473.4 741.778 474.661 739.761 476.174C737.806 477.624 736.293 479.074 735.221 480.524V521.191C737.491 524.217 740.391 526.55 743.922 528.189C747.516 529.828 751.677 530.648 756.406 530.648Z" fill="#EEEFF0"/>
<path d="M632.097 551.453C625.54 551.453 619.519 550.192 614.034 547.67C608.612 545.149 604.261 540.956 600.983 535.092C597.767 529.229 596.159 521.316 596.159 511.355V452.53H617.911V506.626C617.911 515.579 619.834 521.821 623.68 525.351C627.589 528.882 632.286 530.647 637.771 530.647C641.554 530.647 645.054 529.954 648.269 528.567C651.548 527.117 654.164 524.689 656.119 521.285C658.136 517.817 659.145 513.057 659.145 507.004V452.53H680.897V549.184H659.145V539.916C656.497 543.194 652.777 545.937 647.985 548.143C643.257 550.35 637.961 551.453 632.097 551.453Z" fill="#EEEFF0"/>
<path d="M511.004 549.184V412.621H532.756V549.184H511.004ZM482.821 549.184V530.081H560.938V549.184H482.821ZM488.496 431.725L478.471 412.621H532.756V431.725H488.496Z" fill="#EEEFF0"/>
<path d="M407.312 551.454C393.82 551.454 383.07 547.009 375.063 538.119C367.056 529.229 363.052 516.84 363.052 500.952C363.052 490.423 364.912 481.375 368.632 473.809C372.352 466.244 377.553 460.443 384.237 456.408C390.92 452.31 398.738 450.261 407.691 450.261C417.715 450.261 426.069 452.404 432.752 456.692C439.499 460.916 444.385 467.536 447.411 476.552L426.794 483.55C425.407 479.831 423.169 476.804 420.08 474.471C417.053 472.076 412.987 470.878 407.88 470.878C400.629 470.878 395.018 473.62 391.046 479.105C387.137 484.591 385.182 491.873 385.182 500.952C385.182 510.094 387.137 517.344 391.046 522.703C395.018 528 400.503 530.648 407.501 530.648C412.734 530.648 416.959 529.418 420.174 526.959C423.453 524.5 425.849 521.001 427.362 516.462L447.979 522.893C445.141 532.224 440.35 539.317 433.604 544.172C426.857 549.026 418.094 551.454 407.312 551.454Z" fill="#EEEFF0"/>
<path d="M627.936 391.563L590.296 294.909H613.561L635.88 356.192C636.447 357.706 636.952 359.25 637.393 360.826C637.834 362.403 638.276 364.326 638.717 366.595C639.095 364.326 639.505 362.403 639.947 360.826C640.451 359.25 640.987 357.706 641.554 356.192L663.684 294.909H686.76L649.12 391.563H627.936Z" fill="#1395F2"/>
<path d="M524.055 393.833C514.471 393.833 506.212 391.752 499.277 387.591C492.404 383.366 487.108 377.471 483.389 369.906C479.732 362.277 477.903 353.355 477.903 343.142C477.903 332.675 479.795 323.691 483.578 316.188C487.361 308.622 492.688 302.822 499.56 298.787C506.496 294.689 514.661 292.64 524.055 292.64C531.81 292.64 538.871 294.279 545.239 297.557C551.607 300.836 556.651 305.848 560.371 312.595C564.154 319.341 566.045 327.947 566.045 338.413C566.045 340.115 566.014 342.133 565.951 344.466C565.888 346.798 565.667 349.194 565.289 351.653H494.548V333.117H544.672C544.23 328.136 543.001 324.069 540.983 320.917C538.966 317.764 536.475 315.463 533.512 314.013C530.549 312.5 527.396 311.743 524.055 311.743C515.165 311.743 508.734 314.517 504.762 320.066C500.853 325.614 498.898 333.18 498.898 342.763C498.898 352.284 501.105 359.975 505.519 365.839C509.995 371.639 516.237 374.54 524.244 374.54C528.531 374.54 532.409 373.783 535.876 372.27C539.344 370.757 542.591 368.361 545.617 365.082L558.668 378.89C554.633 383.303 549.716 386.897 543.915 389.671C538.178 392.445 531.558 393.833 524.055 393.833Z" fill="#1395F2"/>
<path d="M402.016 393.833C393.253 393.833 385.687 391.847 379.319 387.875C372.951 383.903 368.033 378.134 364.565 370.568C361.161 363.002 359.458 353.86 359.458 343.142C359.458 332.676 361.255 323.691 364.849 316.189C368.443 308.623 373.392 302.822 379.697 298.787C386.002 294.689 393.253 292.64 401.449 292.64C406.871 292.64 411.631 293.554 415.729 295.383C419.891 297.148 423.138 299.323 425.47 301.908V265.025L447.222 255V391.563H425.47V384.186C423.705 386.519 420.742 388.726 416.58 390.807C412.482 392.824 407.628 393.833 402.016 393.833ZM405.043 373.027C410.15 373.027 414.311 372.239 417.526 370.663C420.742 369.023 423.39 366.659 425.47 363.57V322.714C423.957 320.634 421.561 318.553 418.283 316.472C415.004 314.329 410.465 313.257 404.664 313.257C397.225 313.257 391.487 315.842 387.452 321.012C383.417 326.119 381.399 333.495 381.399 343.142C381.399 349.068 382.314 354.27 384.142 358.746C385.97 363.223 388.618 366.722 392.086 369.244C395.617 371.766 399.936 373.027 405.043 373.027Z" fill="#1395F2"/>
<path d="M258.903 724.144C254.319 724.144 251.267 719.407 253.163 715.232L321.519 564.704C322.541 562.452 324.786 561.006 327.259 561.006L344.935 561.006C349.519 561.006 352.571 565.743 350.675 569.918L282.319 720.446C281.297 722.698 279.052 724.144 276.579 724.144L258.903 724.144Z" fill="#EEEFF0"/>
<path d="M252.599 566.523C248.014 566.523 244.962 561.785 246.858 557.611L315.214 407.083C316.236 404.831 318.481 403.385 320.954 403.385L338.63 403.385C343.214 403.385 346.266 408.122 344.37 412.297L276.015 562.825C274.992 565.077 272.747 566.523 270.274 566.523L252.599 566.523Z" fill="#EEEFF0"/>
<path d="M199 325.578C199 325.212 199.128 324.854 199.366 324.576C212.934 308.667 237.65 308.813 251.015 325.012C263.554 340.211 286.087 341.278 300.029 328.212C301.107 327.201 303.03 327.921 303.03 329.399V348.089C303.03 348.455 302.902 348.813 302.664 349.091C289.096 365 264.38 364.855 251.015 348.655C238.476 333.456 215.943 332.39 202.002 345.456C200.923 346.467 199 345.746 199 344.268V325.578Z" fill="#1395F2"/>
</svg>
