<svg width="1000" height="420" viewBox="0 0 1000 420" fill="none" xmlns="http://www.w3.org/2000/svg">
<path d="M644.922 241.6C641.721 241.6 638.996 241.108 636.745 240.123C634.529 239.138 632.682 237.837 631.205 236.219V240.334H619.071V169.745L631.205 164.153V190.637C632.682 188.984 634.705 187.665 637.272 186.68C639.875 185.66 642.495 185.15 645.133 185.15C649.565 185.15 653.486 186.293 656.898 188.579C660.345 190.83 663.035 194.066 664.97 198.287C666.939 202.472 667.924 207.484 667.924 213.322C667.924 222.432 665.849 229.431 661.699 234.32C657.584 239.173 651.991 241.6 644.922 241.6ZM643.023 229.994C647.314 229.994 650.497 228.499 652.572 225.509C654.647 222.485 655.684 218.422 655.684 213.322C655.684 207.941 654.612 203.826 652.466 200.977C650.356 198.093 647.208 196.651 643.023 196.651C641.088 196.651 639.33 196.933 637.747 197.495C636.2 198.058 634.863 198.761 633.738 199.606C632.647 200.415 631.803 201.223 631.205 202.032V224.718C632.471 226.406 634.089 227.708 636.059 228.622C638.064 229.536 640.385 229.994 643.023 229.994Z" fill="#EEEFF0"/>
<path d="M573.678 241.6C570.02 241.6 566.661 240.897 563.601 239.49C560.576 238.083 558.15 235.744 556.321 232.473C554.527 229.202 553.63 224.788 553.63 219.231V186.417H565.764V216.594C565.764 221.588 566.837 225.07 568.982 227.039C571.163 229.009 573.783 229.994 576.843 229.994C578.954 229.994 580.906 229.607 582.699 228.833C584.528 228.024 585.988 226.67 587.078 224.771C588.204 222.836 588.766 220.181 588.766 216.805V186.417H600.9V240.334H588.766V235.164C587.289 236.993 585.214 238.523 582.541 239.754C579.903 240.985 576.949 241.6 573.678 241.6Z" fill="#EEEFF0"/>
<path d="M506.126 240.334V164.153H518.261V240.334H506.126ZM490.405 240.334V229.677H533.982V240.334H490.405ZM493.57 174.81L487.978 164.153H518.261V174.81H493.57Z" fill="#EEEFF0"/>
<path d="M448.282 241.6C440.756 241.6 434.759 239.121 430.292 234.162C425.825 229.203 423.592 222.291 423.592 213.428C423.592 207.555 424.63 202.507 426.705 198.287C428.78 194.066 431.681 190.831 435.41 188.58C439.138 186.293 443.499 185.15 448.493 185.15C454.086 185.15 458.746 186.346 462.474 188.738C466.237 191.094 468.963 194.787 470.651 199.817L459.15 203.721C458.377 201.646 457.128 199.958 455.405 198.656C453.716 197.32 451.448 196.651 448.599 196.651C444.554 196.651 441.424 198.181 439.208 201.241C437.028 204.301 435.937 208.364 435.937 213.428C435.937 218.528 437.028 222.573 439.208 225.562C441.424 228.517 444.484 229.994 448.388 229.994C451.307 229.994 453.664 229.308 455.457 227.936C457.286 226.565 458.623 224.613 459.467 222.08L470.968 225.668C469.385 230.873 466.712 234.83 462.949 237.538C459.185 240.246 454.297 241.6 448.282 241.6Z" fill="#EEEFF0"/>
<path d="M311.281 240.334L290.283 186.417H303.261L315.712 220.603C316.029 221.447 316.31 222.309 316.556 223.188C316.802 224.067 317.049 225.14 317.295 226.406C317.506 225.14 317.734 224.067 317.981 223.188C318.262 222.309 318.561 221.447 318.878 220.603L331.223 186.417H344.095L323.098 240.334H311.281Z" fill="#1395F2"/>
<path d="M253.331 241.6C247.985 241.6 243.377 240.44 239.509 238.119C235.675 235.762 232.72 232.473 230.645 228.253C228.605 223.997 227.585 219.02 227.585 213.323C227.585 207.484 228.641 202.472 230.751 198.287C232.861 194.066 235.833 190.831 239.667 188.58C243.536 186.293 248.09 185.15 253.331 185.15C257.657 185.15 261.596 186.065 265.148 187.894C268.701 189.723 271.515 192.519 273.59 196.282C275.7 200.045 276.755 204.846 276.755 210.685C276.755 211.634 276.737 212.76 276.702 214.061C276.667 215.363 276.544 216.699 276.333 218.071H236.871V207.73H264.832C264.586 204.952 263.9 202.683 262.774 200.925C261.649 199.166 260.26 197.882 258.607 197.073C256.954 196.229 255.195 195.807 253.331 195.807C248.372 195.807 244.784 197.355 242.568 200.45C240.388 203.545 239.298 207.766 239.298 213.112C239.298 218.423 240.529 222.713 242.991 225.984C245.488 229.22 248.97 230.838 253.436 230.838C255.828 230.838 257.991 230.416 259.926 229.572C261.86 228.728 263.671 227.391 265.36 225.562L272.64 233.265C270.389 235.727 267.646 237.732 264.41 239.279C261.209 240.827 257.516 241.6 253.331 241.6Z" fill="#1395F2"/>
<path d="M185.252 241.6C180.363 241.6 176.143 240.492 172.59 238.277C169.038 236.061 166.295 232.843 164.36 228.622C162.461 224.401 161.511 219.302 161.511 213.322C161.511 207.484 162.514 202.472 164.518 198.287C166.523 194.066 169.284 190.83 172.801 188.579C176.318 186.293 180.363 185.15 184.935 185.15C187.96 185.15 190.616 185.66 192.902 186.68C195.223 187.665 197.034 188.878 198.336 190.32V169.745L210.47 164.153V240.334H198.336V236.219C197.351 237.52 195.698 238.751 193.377 239.912C191.09 241.037 188.382 241.6 185.252 241.6ZM186.94 229.994C189.789 229.994 192.11 229.554 193.904 228.675C195.698 227.76 197.175 226.441 198.336 224.718V201.927C197.492 200.766 196.155 199.606 194.326 198.445C192.497 197.249 189.965 196.651 186.729 196.651C182.579 196.651 179.378 198.093 177.127 200.977C174.876 203.826 173.751 207.941 173.751 213.322C173.751 216.629 174.261 219.53 175.281 222.027C176.301 224.525 177.778 226.477 179.712 227.883C181.682 229.29 184.091 229.994 186.94 229.994Z" fill="#1395F2"/>
<path d="M362.168 250.006C359.611 250.006 357.908 247.364 358.966 245.035L397.098 161.063C397.668 159.807 398.921 159 400.3 159L410.16 159C412.718 159 414.42 161.643 413.363 163.972L375.231 247.943C374.66 249.2 373.408 250.006 372.028 250.006L362.168 250.006Z" fill="#EEEFF0"/>
<path d="M904.998 241.6C901.798 241.6 899.072 241.108 896.821 240.123C894.605 239.138 892.759 237.837 891.281 236.219V240.334H879.147V169.745L891.281 164.153V190.637C892.759 188.984 894.781 187.665 897.348 186.68C899.951 185.66 902.571 185.15 905.209 185.15C909.641 185.15 913.562 186.293 916.974 188.579C920.421 190.83 923.111 194.066 925.046 198.287C927.015 202.472 928 207.484 928 213.322C928 222.432 925.925 229.431 921.775 234.32C917.66 239.173 912.068 241.6 904.998 241.6ZM903.099 229.994C907.39 229.994 910.573 228.499 912.648 225.509C914.723 222.485 915.761 218.422 915.761 213.322C915.761 207.941 914.688 203.826 912.542 200.977C910.432 198.093 907.284 196.651 903.099 196.651C901.164 196.651 899.406 196.933 897.823 197.495C896.276 198.058 894.939 198.761 893.814 199.606C892.723 200.415 891.879 201.223 891.281 202.032V224.718C892.548 226.406 894.165 227.708 896.135 228.622C898.14 229.536 900.461 229.994 903.099 229.994Z" fill="#1395F2"/>
<path d="M814.128 261.543V186.417H826.262V190.532C827.704 188.984 829.463 187.7 831.538 186.68C833.648 185.66 836.286 185.15 839.452 185.15C844.235 185.15 848.385 186.258 851.902 188.474C855.455 190.69 858.198 193.908 860.132 198.129C862.102 202.349 863.087 207.449 863.087 213.428C863.087 219.337 862.067 224.402 860.027 228.622C857.987 232.808 855.191 236.026 851.638 238.277C848.086 240.493 844.059 241.6 839.557 241.6C836.286 241.6 833.596 241.073 831.485 240.018C829.375 238.927 827.634 237.591 826.262 236.008V255.95L814.128 261.543ZM837.763 229.994C841.949 229.994 845.167 228.569 847.418 225.721C849.704 222.837 850.847 218.739 850.847 213.428C850.847 208.363 849.722 204.301 847.471 201.241C845.22 198.181 841.949 196.651 837.658 196.651C834.985 196.651 832.699 197.144 830.799 198.129C828.935 199.078 827.423 200.38 826.262 202.033V224.613C827.282 226.02 828.759 227.268 830.694 228.358C832.628 229.449 834.985 229.994 837.763 229.994Z" fill="#1395F2"/>
<path d="M772.639 241.6C767.961 241.6 763.705 240.721 759.872 238.963C756.038 237.169 752.978 234.848 750.692 231.999L758.711 224.718C760.188 226.195 762.14 227.62 764.567 228.992C766.994 230.363 769.895 231.049 773.272 231.049C775.699 231.049 777.704 230.645 779.286 229.836C780.904 229.027 781.713 227.673 781.713 225.773C781.713 224.578 781.221 223.558 780.236 222.713C779.251 221.834 777.809 220.99 775.91 220.181C774.011 219.372 771.689 218.458 768.946 217.438C765.534 216.172 762.527 214.8 759.924 213.323C757.357 211.845 755.352 210.052 753.91 207.941C752.468 205.796 751.747 203.123 751.747 199.922C751.747 196.792 752.661 194.137 754.49 191.956C756.354 189.74 758.852 188.052 761.982 186.891C765.147 185.731 768.664 185.15 772.533 185.15C777.176 185.15 781.168 185.977 784.509 187.63C787.85 189.283 790.576 191.305 792.687 193.697L784.456 200.45C783.085 199.219 781.361 198.129 779.286 197.179C777.211 196.194 774.644 195.702 771.584 195.702C769.262 195.702 767.346 196.054 765.833 196.757C764.321 197.46 763.565 198.586 763.565 200.133C763.565 201.224 764.075 202.191 765.095 203.035C766.15 203.844 767.557 204.618 769.315 205.356C771.074 206.095 773.026 206.851 775.171 207.625C778.266 208.75 781.203 210.017 783.982 211.423C786.795 212.83 789.081 214.659 790.84 216.91C792.634 219.126 793.531 222.045 793.531 225.668C793.531 230.733 791.614 234.654 787.78 237.433C783.982 240.211 778.935 241.6 772.639 241.6Z" fill="#1395F2"/>
<path d="M690.141 250.006C687.584 250.006 685.881 247.363 686.939 245.034L725.071 161.063C725.641 159.807 726.894 159 728.273 159L738.133 159C740.691 159 742.393 161.643 741.336 163.971L703.204 247.943C702.633 249.199 701.381 250.006 700.001 250.006L690.141 250.006Z" fill="#EEEFF0"/>
<path d="M72 203.525C72 203.321 72.0716 203.121 72.2041 202.966C79.7732 194.091 93.561 194.172 101.016 203.209C108.011 211.688 120.581 212.283 128.358 204.994C128.96 204.43 130.033 204.832 130.033 205.657V216.083C130.033 216.287 129.961 216.486 129.829 216.642C122.26 225.516 108.472 225.435 101.016 216.398C94.0214 207.92 81.4518 207.325 73.6744 214.614C73.0728 215.177 72 214.775 72 213.951V203.525Z" fill="#1395F2"/>
</svg>
