<svg width="1333" height="338" viewBox="0 0 1333 338" fill="none" xmlns="http://www.w3.org/2000/svg">
<path d="M235.8 205.44C230.24 205.44 225.44 204.18 221.4 201.66C217.36 199.14 214.24 195.48 212.04 190.68C209.88 185.88 208.8 180.08 208.8 173.28C208.8 166.64 209.94 160.94 212.22 156.18C214.5 151.38 217.64 147.7 221.64 145.14C225.64 142.54 230.24 141.24 235.44 141.24C238.88 141.24 241.9 141.82 244.5 142.98C247.14 144.1 249.2 145.48 250.68 147.12V123.72L264.48 117.36V204H250.68V199.32C249.56 200.8 247.68 202.2 245.04 203.52C242.44 204.8 239.36 205.44 235.8 205.44ZM237.72 192.24C240.96 192.24 243.6 191.74 245.64 190.74C247.68 189.7 249.36 188.2 250.68 186.24V160.32C249.72 159 248.2 157.68 246.12 156.36C244.04 155 241.16 154.32 237.48 154.32C232.76 154.32 229.12 155.96 226.56 159.24C224 162.48 222.72 167.16 222.72 173.28C222.72 177.04 223.3 180.34 224.46 183.18C225.62 186.02 227.3 188.24 229.5 189.84C231.74 191.44 234.48 192.24 237.72 192.24ZM313.225 205.44C307.145 205.44 301.905 204.12 297.505 201.48C293.145 198.8 289.785 195.06 287.425 190.26C285.105 185.42 283.945 179.76 283.945 173.28C283.945 166.64 285.145 160.94 287.545 156.18C289.945 151.38 293.325 147.7 297.685 145.14C302.085 142.54 307.265 141.24 313.225 141.24C318.145 141.24 322.625 142.28 326.665 144.36C330.705 146.44 333.905 149.62 336.265 153.9C338.665 158.18 339.865 163.64 339.865 170.28C339.865 171.36 339.845 172.64 339.805 174.12C339.765 175.6 339.625 177.12 339.385 178.68H294.505V166.92H326.305C326.025 163.76 325.245 161.18 323.965 159.18C322.685 157.18 321.105 155.72 319.225 154.8C317.345 153.84 315.345 153.36 313.225 153.36C307.585 153.36 303.505 155.12 300.985 158.64C298.505 162.16 297.265 166.96 297.265 173.04C297.265 179.08 298.665 183.96 301.465 187.68C304.305 191.36 308.265 193.2 313.345 193.2C316.065 193.2 318.525 192.72 320.725 191.76C322.925 190.8 324.985 189.28 326.905 187.2L335.185 195.96C332.625 198.76 329.505 201.04 325.825 202.8C322.185 204.56 317.985 205.44 313.225 205.44ZM379.131 204L355.251 142.68H370.011L384.171 181.56C384.531 182.52 384.851 183.5 385.131 184.5C385.411 185.5 385.691 186.72 385.971 188.16C386.211 186.72 386.471 185.5 386.751 184.5C387.071 183.5 387.411 182.52 387.771 181.56L401.811 142.68H416.451L392.571 204H379.131ZM460.996 205.44C452.436 205.44 445.616 202.62 440.536 196.98C435.456 191.34 432.916 183.48 432.916 173.4C432.916 166.72 434.096 160.98 436.456 156.18C438.816 151.38 442.116 147.7 446.356 145.14C450.596 142.54 455.556 141.24 461.236 141.24C467.596 141.24 472.896 142.6 477.136 145.32C481.416 148 484.516 152.2 486.436 157.92L473.356 162.36C472.476 160 471.056 158.08 469.096 156.6C467.176 155.08 464.596 154.32 461.356 154.32C456.756 154.32 453.196 156.06 450.676 159.54C448.196 163.02 446.956 167.64 446.956 173.4C446.956 179.2 448.196 183.8 450.676 187.2C453.196 190.56 456.676 192.24 461.116 192.24C464.436 192.24 467.116 191.46 469.156 189.9C471.236 188.34 472.756 186.12 473.716 183.24L486.796 187.32C484.996 193.24 481.956 197.74 477.676 200.82C473.396 203.9 467.836 205.44 460.996 205.44ZM526.781 204V117.36H540.581V204H526.781ZM508.901 204V191.88H558.461V204H508.901ZM512.501 129.48L506.141 117.36H540.581V129.48H512.501ZM603.607 205.44C599.447 205.44 595.627 204.64 592.147 203.04C588.707 201.44 585.947 198.78 583.867 195.06C581.827 191.34 580.807 186.32 580.807 180V142.68H594.607V177C594.607 182.68 595.827 186.64 598.267 188.88C600.747 191.12 603.727 192.24 607.207 192.24C609.607 192.24 611.827 191.8 613.867 190.92C615.947 190 617.607 188.46 618.847 186.3C620.127 184.1 620.767 181.08 620.767 177.24V142.68H634.567V204H620.767V198.12C619.087 200.2 616.727 201.94 613.687 203.34C610.687 204.74 607.327 205.44 603.607 205.44ZM684.632 205.44C680.992 205.44 677.892 204.88 675.332 203.76C672.812 202.64 670.712 201.16 669.032 199.32V204H655.232V123.72L669.032 117.36V147.48C670.712 145.6 673.012 144.1 675.932 142.98C678.892 141.82 681.872 141.24 684.872 141.24C689.912 141.24 694.372 142.54 698.252 145.14C702.172 147.7 705.232 151.38 707.432 156.18C709.672 160.94 710.792 166.64 710.792 173.28C710.792 183.64 708.432 191.6 703.712 197.16C699.032 202.68 692.672 205.44 684.632 205.44ZM682.472 192.24C687.352 192.24 690.972 190.54 693.332 187.14C695.692 183.7 696.872 179.08 696.872 173.28C696.872 167.16 695.652 162.48 693.212 159.24C690.812 155.96 687.232 154.32 682.472 154.32C680.272 154.32 678.272 154.64 676.472 155.28C674.712 155.92 673.192 156.72 671.912 157.68C670.672 158.6 669.712 159.52 669.032 160.44V186.24C670.472 188.16 672.312 189.64 674.552 190.68C676.832 191.72 679.472 192.24 682.472 192.24Z" fill="white"/>
<path d="M755.937 205.44C750.617 205.44 745.777 204.44 741.417 202.44C737.057 200.4 733.577 197.76 730.977 194.52L740.097 186.24C741.777 187.92 743.997 189.54 746.757 191.1C749.517 192.66 752.817 193.44 756.657 193.44C759.417 193.44 761.697 192.98 763.497 192.06C765.337 191.14 766.257 189.6 766.257 187.44C766.257 186.08 765.697 184.92 764.577 183.96C763.457 182.96 761.817 182 759.657 181.08C757.497 180.16 754.857 179.12 751.737 177.96C747.857 176.52 744.437 174.96 741.477 173.28C738.557 171.6 736.277 169.56 734.637 167.16C732.997 164.72 732.177 161.68 732.177 158.04C732.177 154.48 733.217 151.46 735.297 148.98C737.417 146.46 740.257 144.54 743.817 143.22C747.417 141.9 751.417 141.24 755.817 141.24C761.097 141.24 765.637 142.18 769.437 144.06C773.237 145.94 776.337 148.24 778.737 150.96L769.377 158.64C767.817 157.24 765.857 156 763.497 154.92C761.137 153.8 758.217 153.24 754.737 153.24C752.097 153.24 749.917 153.64 748.197 154.44C746.477 155.24 745.617 156.52 745.617 158.28C745.617 159.52 746.197 160.62 747.357 161.58C748.557 162.5 750.157 163.38 752.157 164.22C754.157 165.06 756.377 165.92 758.817 166.8C762.337 168.08 765.677 169.52 768.837 171.12C772.037 172.72 774.637 174.8 776.637 177.36C778.677 179.88 779.697 183.2 779.697 187.32C779.697 193.08 777.517 197.54 773.157 200.7C768.837 203.86 763.097 205.44 755.937 205.44ZM803.123 228.12V142.68H816.923V147.36C818.563 145.6 820.563 144.14 822.923 142.98C825.323 141.82 828.323 141.24 831.923 141.24C837.363 141.24 842.083 142.5 846.083 145.02C850.123 147.54 853.243 151.2 855.443 156C857.683 160.8 858.803 166.6 858.803 173.4C858.803 180.12 857.643 185.88 855.323 190.68C853.003 195.44 849.823 199.1 845.783 201.66C841.743 204.18 837.163 205.44 832.043 205.44C828.323 205.44 825.262 204.84 822.862 203.64C820.463 202.4 818.483 200.88 816.923 199.08V221.76L803.123 228.12ZM830.003 192.24C834.763 192.24 838.423 190.62 840.983 187.38C843.583 184.1 844.883 179.44 844.883 173.4C844.883 167.64 843.603 163.02 841.043 159.54C838.483 156.06 834.763 154.32 829.883 154.32C826.843 154.32 824.243 154.88 822.083 156C819.963 157.08 818.243 158.56 816.923 160.44V186.12C818.083 187.72 819.763 189.14 821.963 190.38C824.163 191.62 826.843 192.24 830.003 192.24ZM906.468 205.44C902.828 205.44 899.728 204.88 897.168 203.76C894.648 202.64 892.548 201.16 890.868 199.32V204H877.068V123.72L890.868 117.36V147.48C892.548 145.6 894.848 144.1 897.768 142.98C900.728 141.82 903.708 141.24 906.708 141.24C911.748 141.24 916.208 142.54 920.088 145.14C924.008 147.7 927.068 151.38 929.268 156.18C931.508 160.94 932.628 166.64 932.628 173.28C932.628 183.64 930.268 191.6 925.548 197.16C920.868 202.68 914.508 205.44 906.468 205.44ZM904.308 192.24C909.188 192.24 912.808 190.54 915.168 187.14C917.528 183.7 918.708 179.08 918.708 173.28C918.708 167.16 917.488 162.48 915.048 159.24C912.648 155.96 909.068 154.32 904.308 154.32C902.108 154.32 900.108 154.64 898.308 155.28C896.548 155.92 895.028 156.72 893.748 157.68C892.508 158.6 891.548 159.52 890.868 160.44V186.24C892.308 188.16 894.148 189.64 896.388 190.68C898.668 191.72 901.308 192.24 904.308 192.24ZM961.153 205.56C958.433 205.56 956.173 204.64 954.373 202.8C952.613 200.96 951.733 198.76 951.733 196.2C951.733 193.68 952.613 191.5 954.373 189.66C956.173 187.78 958.413 186.84 961.093 186.84C963.813 186.84 966.093 187.78 967.933 189.66C969.773 191.5 970.693 193.68 970.693 196.2C970.693 198.76 969.773 200.96 967.933 202.8C966.093 204.64 963.833 205.56 961.153 205.56ZM988.118 204V191.88H1001.08V154.8H988.118V142.68H1013.92V156.24L1013.2 154.44C1013.96 151.92 1015.36 149.66 1017.4 147.66C1019.48 145.66 1022.04 144.1 1025.08 142.98C1028.16 141.82 1031.56 141.24 1035.28 141.24C1038.36 141.24 1041.08 141.58 1043.44 142.26C1045.8 142.9 1047.76 143.64 1049.32 144.48V167.16H1035.88V148.56L1041.76 154.56C1040.56 154.36 1039.44 154.22 1038.4 154.14C1037.4 154.02 1036.56 153.96 1035.88 153.96C1030.84 153.96 1026.78 154.7 1023.7 156.18C1020.62 157.62 1018.38 159.7 1016.98 162.42C1015.58 165.14 1014.88 168.36 1014.88 172.08V191.88H1032.04V204H988.118ZM1088.82 205.44C1084.66 205.44 1080.84 204.64 1077.36 203.04C1073.92 201.44 1071.16 198.78 1069.08 195.06C1067.04 191.34 1066.02 186.32 1066.02 180V142.68H1079.82V177C1079.82 182.68 1081.04 186.64 1083.48 188.88C1085.96 191.12 1088.94 192.24 1092.42 192.24C1094.82 192.24 1097.04 191.8 1099.08 190.92C1101.16 190 1102.82 188.46 1104.06 186.3C1105.34 184.1 1105.98 181.08 1105.98 177.24V142.68H1119.78V204H1105.98V198.12C1104.3 200.2 1101.94 201.94 1098.9 203.34C1095.9 204.74 1092.54 205.44 1088.82 205.44Z" fill="#1395F2"/>
<path d="M1151 215C1148.1 215 1146.16 211.994 1147.36 209.346L1190.73 113.846C1191.38 112.417 1192.8 111.5 1194.37 111.5L1205.59 111.5C1208.49 111.5 1210.43 114.506 1209.23 117.154L1165.86 212.654C1165.21 214.083 1163.79 215 1162.22 215L1151 215Z" fill="white"/>
<path d="M107 162.137C107 161.905 107.081 161.678 107.232 161.501C115.84 151.408 131.521 151.5 140 161.778C147.955 171.421 162.251 172.097 171.096 163.808C171.78 163.167 173 163.624 173 164.561V176.419C173 176.651 172.919 176.878 172.768 177.055C164.16 187.148 148.479 187.055 140 176.778C132.045 167.135 117.749 166.458 108.904 174.748C108.22 175.389 107 174.932 107 173.994V162.137Z" fill="#1395F2"/>
</svg>
