<svg width="600" height="600" viewBox="0 0 600 600" fill="none" xmlns="http://www.w3.org/2000/svg">
<path d="M282.339 425.2C275.278 425.2 270.577 417.905 273.497 411.478L378.783 179.694C380.358 176.227 383.816 174 387.625 174L417.278 174C424.339 174 429.039 181.295 426.12 187.722L320.834 419.506C319.259 422.974 315.801 425.2 311.992 425.2L282.339 425.2Z" fill="white"/>
<path d="M113 282.478C113 281.921 113.197 281.377 113.561 280.953C134.38 256.752 172.303 256.973 192.808 281.616C212.048 304.738 246.62 306.36 268.011 286.484C269.666 284.946 272.617 286.042 272.617 288.291V316.722C272.617 317.279 272.42 317.823 272.055 318.247C251.237 342.448 213.314 342.227 192.808 317.583C173.569 294.462 138.997 292.839 117.605 312.716C115.951 314.254 113 313.158 113 310.909V282.478Z" fill="#1395F2"/>
</svg>
